# xmcd CD database file
#
# Track frame offsets:
#	150
#	12081
#	27843
#	38886
#	52992
#	68529
#	84291
#	98322
#	116854
#	132391
#	147363
#
# Disc length: 2106 seconds
#
# Revision: 0
# Processed by: cddbd v1.5.2PL0 Copyright (c) Steve Scherf et al.
# Submitted via: CDex 1.79
#
DISCID=8308380b
DTITLE=Mark Wayne Glasmire - All Of My Heart
DYEAR=1900
DGENRE=Country
TTITLE0=Simple Pleasures
TTITLE1=All Of My Heart
TTITLE2=I Like You
TTITLE3=Little Things
TTITLE4=Everything Is Gonna Be Alright
TTITLE5=Do It All Again
TTITLE6=I`ve Got A Feeling
TTITLE7=Our Love Remains
TTITLE8=Without You
TTITLE9=The Last Goodbye
TTITLE10=I`ve Been With You
EXTD=
EXTT0=
EXTT1=
EXTT2=
EXTT3=
EXTT4=
EXTT5=
EXTT6=
EXTT7=
EXTT8=
EXTT9=
EXTT10=
PLAYORDER=
